<svg width="200" height="65" viewBox="0 0 200 50" fill="none" xmlns="http://www.w3.org/2000/svg">
<path d="M25.1457 26.5735C25.0805 26.5717 25.016 26.5604 24.9542 26.54L11.9202 21.9927C11.8232 21.9592 11.7368 21.9003 11.6703 21.8221C11.6037 21.7439 11.5593 21.6493 11.5417 21.5481C11.5241 21.447 11.534 21.3429 11.5702 21.2468C11.6065 21.1508 11.6679 21.0662 11.7479 21.0019L23.8724 11.3138C23.955 11.2482 24.0539 11.2064 24.1585 11.1929C24.2631 11.1794 24.3694 11.1947 24.466 11.2372C24.5607 11.2786 24.6424 11.345 24.7023 11.4294C24.7622 11.5137 24.7979 11.6127 24.8058 11.7158L25.72 25.9512C25.7223 26.0435 25.7026 26.135 25.6627 26.2182C25.6228 26.3014 25.5637 26.3739 25.4903 26.4299C25.3948 26.5151 25.2734 26.5657 25.1457 26.5735ZM13.2796 21.2508L24.5186 25.171L23.7288 12.8981L13.2796 21.2508Z" fill="#30B3EC"/>
<path d="M15.5441 39.6313L14.6299 38.9373L24.6818 25.6496C24.7287 25.5891 24.7873 25.5386 24.8541 25.5012L39.4868 17.0146L24.0643 12.3093C23.9513 12.2743 23.8518 12.2056 23.779 12.1123C23.7063 12.019 23.6639 11.9057 23.6574 11.7876L23.1788 0.299728L24.3276 0.251862L24.8062 11.3281L41.0903 16.2774C41.1977 16.3099 41.2933 16.373 41.3652 16.4592C41.4372 16.5453 41.4823 16.6507 41.495 16.7622C41.5078 16.8737 41.4875 16.9865 41.4369 17.0866C41.3862 17.1868 41.3073 17.2699 41.2099 17.3257L25.5338 26.4203L15.5441 39.6313Z" fill="#30B3EC"/>
<path d="M40.6312 2.16992L39.4824 2.25034L40.5439 17.4143L41.6927 17.3339L40.6312 2.16992Z" fill="#30B3EC"/>
<path d="M37.1272 32.3556L36.0215 32.0445L40.3725 16.6891C40.4042 16.5741 40.4712 16.472 40.564 16.3971L52.1428 7.13498L52.8608 8.03486L41.4256 17.1821L37.1272 32.3556Z" fill="#30B3EC"/>
<path d="M9.18347 4.63954L8.72852 5.6944L24.0064 12.2836L24.4614 11.2287L9.18347 4.63954Z" fill="#30B3EC"/>
<path d="M6.30105 35.7972L5.25278 35.3186L11.1116 22.2655L1.80642 24.3859L1.55273 23.2659L11.978 20.8726C12.0826 20.8493 12.1916 20.8554 12.2929 20.8904C12.3942 20.9253 12.4838 20.9877 12.5517 21.0705C12.6197 21.1534 12.6634 21.2535 12.6778 21.3596C12.6923 21.4658 12.677 21.5739 12.6337 21.6719L6.30105 35.7972Z" fill="#30B3EC"/>
<path d="M25.4494 25.2407L24.3936 25.6935L28.5041 35.2794L29.5599 34.8266L25.4494 25.2407Z" fill="#30B3EC"/>
<path d="M12.1073 23.0553C12.9956 23.0553 13.7156 22.3352 13.7156 21.447C13.7156 20.5587 12.9956 19.8387 12.1073 19.8387C11.2191 19.8387 10.499 20.5587 10.499 21.447C10.499 22.3352 11.2191 23.0553 12.1073 23.0553Z" fill="#30B3EC"/>
<path d="M40.9228 18.4553C41.811 18.4553 42.5311 17.7352 42.5311 16.847C42.5311 15.9588 41.811 15.2387 40.9228 15.2387C40.0345 15.2387 39.3145 15.9588 39.3145 16.847C39.3145 17.7352 40.0345 18.4553 40.9228 18.4553Z" fill="#30B3EC"/>
<path d="M24.2313 13.3719C25.1196 13.3719 25.8397 12.6518 25.8397 11.7636C25.8397 10.8753 25.1196 10.1553 24.2313 10.1553C23.3431 10.1553 22.623 10.8753 22.623 11.7636C22.623 12.6518 23.3431 13.3719 24.2313 13.3719Z" fill="#30B3EC"/>
<path d="M25.1454 27.6073C26.0337 27.6073 26.7537 26.8872 26.7537 25.999C26.7537 25.1107 26.0337 24.3907 25.1454 24.3907C24.2572 24.3907 23.5371 25.1107 23.5371 25.999C23.5371 26.8872 24.2572 27.6073 25.1454 27.6073Z" fill="#30B3EC"/>
<path d="M19.9382 47.9648C19.8655 47.9646 19.793 47.955 19.7228 47.9361L16.3722 47.0553C16.2151 47.0134 16.0732 46.9277 15.963 46.8082C15.8528 46.6887 15.7789 46.5403 15.7499 46.3804L14.4767 39.2531L12.0403 37.1758L5.8177 35.8738C5.70233 35.8506 5.5932 35.8031 5.49749 35.7347C5.40179 35.6662 5.32168 35.5782 5.26245 35.4765L0.121629 26.8606C0.0481386 26.7378 0.0065699 26.5986 0.000717087 26.4556C-0.00513573 26.3126 0.0249139 26.1705 0.0881234 26.0421L1.39966 23.4573L1.9549 13.549C1.96521 13.3852 2.02163 13.2275 2.11765 13.0943L8.26844 4.66987C8.33279 4.57642 8.41497 4.4966 8.51026 4.43499C8.60554 4.37339 8.71206 4.33121 8.82369 4.31088L19.9621 2.53983L23.2888 0.160886C23.4503 0.0422193 23.6492 -0.0139007 23.8489 0.00292779L39.5633 1.35754C39.6606 1.36692 39.7558 1.39113 39.8457 1.42934L52.401 7.17327C52.5927 7.26216 52.7445 7.4191 52.827 7.61364L55.9335 14.8701C55.9975 15.0211 56.0158 15.1875 55.9862 15.3488L53.9231 27.009C53.9036 27.1234 53.8609 27.2325 53.7975 27.3297C53.7341 27.4268 53.6514 27.5099 53.5546 27.5738L45.1158 33.1646C44.9521 33.2729 44.7556 33.3204 44.5605 33.2986L36.8493 32.5136L29.6694 35.3856L20.6323 47.6201C20.5523 47.7286 20.4477 47.8165 20.3269 47.8765C20.2062 47.9364 20.073 47.9667 19.9382 47.9648ZM17.3199 45.5715L19.5936 46.165L28.4153 34.1985C28.5086 34.0699 28.6364 33.9703 28.7839 33.9113L36.4041 30.8622C36.5312 30.8096 36.6695 30.7898 36.8062 30.8048L44.4265 31.5946L52.3244 26.3724L54.2773 15.3201L51.4054 8.61883L39.2809 3.04243L24.0164 1.73089L20.795 4.04283C20.6877 4.12126 20.5628 4.17221 20.4312 4.19121L9.42201 5.95747L3.66372 13.8841L3.08933 23.7493C3.08518 23.8644 3.05577 23.9771 3.00317 24.0796L1.84002 26.4011L6.53569 34.2846L12.586 35.5531C12.7253 35.5836 12.8551 35.6477 12.9641 35.7398L15.8026 38.1331C15.9469 38.2579 16.0475 38.4256 16.0898 38.6117L17.3199 45.5715Z" fill="#30B3EC"/>
<path d="M40.84 16.033L40.1104 16.9203L53.1762 27.6642L53.9058 26.7769L40.84 16.033Z" fill="#30B3EC"/>
<path d="M3.17853 13.1606L2.4375 14.0385L11.7388 21.8903L12.4798 21.0125L3.17853 13.1606Z" fill="#30B3EC"/>
<path d="M74.868 25.13C73.0827 25.13 71.4707 24.7313 70.032 23.934C68.6107 23.1367 67.484 22.036 66.652 20.632C65.8373 19.228 65.43 17.6507 65.43 15.9C65.43 14.1493 65.8373 12.572 66.652 11.168C67.484 9.764 68.6107 8.66333 70.032 7.866C71.4707 7.06867 73.0827 6.67 74.868 6.67C76.1853 6.67 77.3987 6.88667 78.508 7.32C79.6173 7.736 80.562 8.36 81.342 9.192L80.51 10.05C79.054 8.61133 77.1907 7.892 74.92 7.892C73.3947 7.892 72.008 8.23867 70.76 8.932C69.512 9.62533 68.5327 10.5873 67.822 11.818C67.1113 13.0313 66.756 14.392 66.756 15.9C66.756 17.408 67.1113 18.7773 67.822 20.008C68.5327 21.2213 69.512 22.1747 70.76 22.868C72.008 23.5613 73.3947 23.908 74.92 23.908C77.1733 23.908 79.0367 23.18 80.51 21.724L81.342 22.582C80.562 23.414 79.6087 24.0467 78.482 24.48C77.3727 24.9133 76.168 25.13 74.868 25.13ZM93.1245 25.13C91.3391 25.13 89.7271 24.7313 88.2885 23.934C86.8498 23.1193 85.7145 22.01 84.8825 20.606C84.0678 19.202 83.6605 17.6333 83.6605 15.9C83.6605 14.1667 84.0678 12.598 84.8825 11.194C85.7145 9.79 86.8498 8.68933 88.2885 7.892C89.7271 7.07733 91.3391 6.67 93.1245 6.67C94.9098 6.67 96.5218 7.06867 97.9605 7.866C99.3991 8.66333 100.526 9.764 101.34 11.168C102.172 12.572 102.588 14.1493 102.588 15.9C102.588 17.6507 102.172 19.228 101.34 20.632C100.526 22.036 99.3991 23.1367 97.9605 23.934C96.5218 24.7313 94.9098 25.13 93.1245 25.13ZM93.1245 23.908C94.6498 23.908 96.0278 23.5613 97.2585 22.868C98.4891 22.1747 99.4598 21.2213 100.17 20.008C100.881 18.7773 101.236 17.408 101.236 15.9C101.236 14.392 100.881 13.0313 100.17 11.818C99.4598 10.5873 98.4891 9.62533 97.2585 8.932C96.0278 8.23867 94.6498 7.892 93.1245 7.892C91.5991 7.892 90.2125 8.23867 88.9645 8.932C87.7338 9.62533 86.7631 10.5873 86.0525 11.818C85.3418 13.0313 84.9865 14.392 84.9865 15.9C84.9865 17.408 85.3418 18.7773 86.0525 20.008C86.7631 21.2213 87.7338 22.1747 88.9645 22.868C90.2125 23.5613 91.5991 23.908 93.1245 23.908ZM120.188 15.978H121.462V22.79C120.664 23.5527 119.694 24.1333 118.55 24.532C117.423 24.9307 116.227 25.13 114.962 25.13C113.159 25.13 111.53 24.7313 110.074 23.934C108.635 23.1367 107.5 22.036 106.668 20.632C105.853 19.228 105.446 17.6507 105.446 15.9C105.446 14.1493 105.853 12.572 106.668 11.168C107.5 9.764 108.635 8.66333 110.074 7.866C111.53 7.06867 113.168 6.67 114.988 6.67C116.322 6.67 117.544 6.88667 118.654 7.32C119.78 7.736 120.742 8.35133 121.54 9.166L120.708 10.05C119.945 9.28733 119.087 8.74133 118.134 8.412C117.198 8.06533 116.158 7.892 115.014 7.892C113.454 7.892 112.041 8.23867 110.776 8.932C109.528 9.62533 108.548 10.5873 107.838 11.818C107.127 13.0313 106.772 14.392 106.772 15.9C106.772 17.3907 107.127 18.7513 107.838 19.982C108.566 21.1953 109.554 22.1573 110.802 22.868C112.05 23.5613 113.454 23.908 115.014 23.908C117.094 23.908 118.818 23.3533 120.188 22.244V15.978ZM130.781 7.996H124.229V6.8H138.659V7.996H132.107V25H130.781V7.996ZM141.947 6.8H143.273V25H141.947V6.8ZM157.337 25.13C155.552 25.13 153.94 24.7313 152.501 23.934C151.063 23.1193 149.927 22.01 149.095 20.606C148.281 19.202 147.873 17.6333 147.873 15.9C147.873 14.1667 148.281 12.598 149.095 11.194C149.927 9.79 151.063 8.68933 152.501 7.892C153.94 7.07733 155.552 6.67 157.337 6.67C159.123 6.67 160.735 7.06867 162.173 7.866C163.612 8.66333 164.739 9.764 165.553 11.168C166.385 12.572 166.801 14.1493 166.801 15.9C166.801 17.6507 166.385 19.228 165.553 20.632C164.739 22.036 163.612 23.1367 162.173 23.934C160.735 24.7313 159.123 25.13 157.337 25.13ZM157.337 23.908C158.863 23.908 160.241 23.5613 161.471 22.868C162.702 22.1747 163.673 21.2213 164.383 20.008C165.094 18.7773 165.449 17.408 165.449 15.9C165.449 14.392 165.094 13.0313 164.383 11.818C163.673 10.5873 162.702 9.62533 161.471 8.932C160.241 8.23867 158.863 7.892 157.337 7.892C155.812 7.892 154.425 8.23867 153.177 8.932C151.947 9.62533 150.976 10.5873 150.265 11.818C149.555 13.0313 149.199 14.392 149.199 15.9C149.199 17.408 149.555 18.7773 150.265 20.008C150.976 21.2213 151.947 22.1747 153.177 22.868C154.425 23.5613 155.812 23.908 157.337 23.908Z" fill="black"/>
<path d="M75.072 32.8V44H74.4L66.768 34.272V44H65.952V32.8H66.64L74.256 42.528V32.8H75.072ZM81.1273 33.536H77.0953V32.8H85.9753V33.536H81.9433V44H81.1273V33.536ZM97.1189 32.8V44H96.4469L88.8149 34.272V44H87.9989V32.8H88.6869L96.3029 42.528V32.8H97.1189ZM105.414 44.08C103.995 44.08 102.891 43.6693 102.102 42.848C101.323 42.0267 100.934 40.8267 100.934 39.248V32.8H101.75V39.216C101.75 40.592 102.065 41.6213 102.694 42.304C103.323 42.9867 104.235 43.328 105.43 43.328C106.614 43.328 107.521 42.9867 108.15 42.304C108.779 41.6213 109.094 40.592 109.094 39.216V32.8H109.91V39.248C109.91 40.8267 109.515 42.0267 108.726 42.848C107.937 43.6693 106.833 44.08 105.414 44.08Z" fill="#222222"/>
</svg>
